<?xml version="1.0"?>
<svg xmlns:rdf="http://www.w3.org/1999/02/22-rdf-syntax-ns#" xmlns="http://www.w3.org/2000/svg" xmlns:cc="http://web.resource.org/cc/" xmlns:xlink="http://www.w3.org/1999/xlink" xmlns:dc="http://purl.org/dc/elements/1.1/" xmlns:svg="http://www.w3.org/2000/svg" id="svg2" viewBox="0 0 1223 748.37" version="1.0">
  <defs id="defs4">
    <linearGradient id="linearGradient2388" y2="494.55" gradientUnits="userSpaceOnUse" x2="-158.82" gradientTransform="translate(-96,-16)" y1="222.55" x1="-178.82">
      <stop id="stop2384" stop-color="#f00" offset="0"/>
      <stop id="stop2386" stop-color="#ff0" offset="1"/>
    </linearGradient>
    <linearGradient id="linearGradient2390" y2="494.55" gradientUnits="userSpaceOnUse" x2="-158.82" gradientTransform="translate(-72,-8)" y1="222.55" x1="-178.82">
      <stop id="stop2402" stop-color="#f00" offset="0"/>
      <stop id="stop2404" stop-color="#ff0" offset="1"/>
    </linearGradient>
    <linearGradient id="linearGradient2392" y2="494.55" gradientUnits="userSpaceOnUse" x2="-158.82" gradientTransform="translate(-40,-12)" y1="222.55" x1="-178.82">
      <stop id="stop2396" stop-color="#f00" offset="0"/>
      <stop id="stop2398" stop-color="#ff0" offset="1"/>
    </linearGradient>
  </defs>
  <g id="layer1" stroke-linejoin="round" stroke="#000" stroke-linecap="square" transform="translate(490.32 75.918)">
    <path id="path2406" opacity=".7" d="m24 384.62c389.1-108.39 931-297.17 1340-316" transform="translate(-562.82 -94.068)" stroke-width="15" fill="none"/>
    <path id="path3178" opacity=".7" d="m-558.82 523.55c393.17-89.79 894.01-306.49 1328-284" stroke-width="15" fill="none"/>
    <path id="path3180" opacity=".7" d="m-526.82 440.55c393.05-90.06 874.91-302.06 1308-292" stroke-width="15" fill="none"/>
    <path id="path3184" opacity=".7" d="m-530.82 594.55c395.77-107.56 931.43-312.35 1308-276" stroke-width="15" fill="none"/>
    <path id="path3182" opacity=".7" d="m-538.82 353.55c393.15-89.57 898.21-253.25 1332-292" stroke-width="15" fill="none"/>
    <path id="path12540" d="m388.52 137.25l-351.43 120 20.004 320s-51.428-80-97.142-57.14c-45.715 22.86-57.143 120-22.857 145.71 34.285 25.72 151.43-77.14 151.43-77.14l-11.431-265.71 280-91.43 5.72 285.71s-62.86-57.14-91.43-48.57-71.43 62.86-54.29 94.29c17.15 31.42 119.81 82.71 151.43 11.42 20.69-46.63 20-51.42 20-51.42v-385.72z" stroke-width="5" fill="url(#linearGradient2388)" fill-rule="evenodd"/>
    <path id="path12544" d="m381.26 75.153s-8.57-34.285 31.43-45.714c83.37 3.18 103.36-25.676 137.14-102.86l14.28 414.29s-14.28 54.28-42.85 74.28c-113 70.88-138.57-68.69-82.86-100 42.86-11.43 97.14 14.29 97.14 14.29l-11.43-280c-49.09 32.257-91.53-0.621-142.85 25.713z" stroke-width="5" fill="url(#linearGradient2392)" fill-rule="evenodd"/>
    <path id="path12546" d="m152.43 18.898l-438.66 147.15 20 320s-51.44-80.01-97.15-57.15c-45.72 22.86-57.13 120-22.85 145.72 34.29 25.71 151.41-77.13 151.41-77.13l-11.41-265.72 151.16-48.81 10.936 267.91s-54.266-25.71-97.126-14.28c-55.71 31.3-30.15 170.88 82.845 100 28.571-20 42.844-74.32 42.844-74.32l-6.844-289.84 183.44-59.22 5.72 285.69s-62.865-57.14-91.436-48.56c-28.572 8.57-71.424 62.85-54.282 94.28 17.143 31.43 119.78 82.72 151.41 11.43 20.69-46.63 20-51.43 20-51.43v-385.72z" stroke-width="5" fill="url(#linearGradient2390)" fill-rule="evenodd"/>
  </g>
  <metadata>
    <rdf:RDF>
      <cc:Work>
        <dc:format>image/svg+xml</dc:format>
        <dc:type rdf:resource="http://purl.org/dc/dcmitype/StillImage"/>
        <cc:license rdf:resource="http://creativecommons.org/licenses/publicdomain/"/>
        <dc:publisher>
          <cc:Agent rdf:about="http://openclipart.org/">
            <dc:title>Openclipart</dc:title>
          </cc:Agent>
        </dc:publisher>
        <dc:title>Music paper</dc:title>
        <dc:date>2010-03-13T12:58:28</dc:date>
        <dc:description>music sheet with notes</dc:description>
        <dc:source>http://openclipart.org/detail/31327/music-paper-by-peileppe</dc:source>
        <dc:creator>
          <cc:Agent>
            <dc:title>Peileppe</dc:title>
          </cc:Agent>
        </dc:creator>
        <dc:subject>
          <rdf:Bag>
            <rdf:li>clip art</rdf:li>
            <rdf:li>clipart</rdf:li>
            <rdf:li>music paper</rdf:li>
            <rdf:li>music sheet</rdf:li>
            <rdf:li>note</rdf:li>
          </rdf:Bag>
        </dc:subject>
      </cc:Work>
      <cc:License rdf:about="http://creativecommons.org/licenses/publicdomain/">
        <cc:permits rdf:resource="http://creativecommons.org/ns#Reproduction"/>
        <cc:permits rdf:resource="http://creativecommons.org/ns#Distribution"/>
        <cc:permits rdf:resource="http://creativecommons.org/ns#DerivativeWorks"/>
      </cc:License>
    </rdf:RDF>
  </metadata>
</svg>
